# xmcd CD database file
#
# Track frame offsets:
#	150
#	6035
#	27317
#	31601
#	51010
#	68791
#	93153
#	112874
#	139906
#	159993
#
# Disc length: 2406 seconds
#
# Revision: 0
# Processed by: cddbd v1.5.1PL0 Copyright (c) Steve Scherf et al.
# Submitted via: CDex 1.50
#
DISCID=6d09640a
DTITLE=Autumn Tears - Eclipse
DYEAR=1900
DGENRE=New Age
TTITLE0=Autumn Tears - commemoration
TTITLE1=Autumn Tears - ophelias crown
TTITLE2=Autumn Tears - three
TTITLE3=Autumn Tears - dawn
TTITLE4=Autumn Tears - remember
TTITLE5=Autumn Tears - flight
TTITLE6=Autumn Tears - the beauty in all things
TTITLE7=Autumn Tears - pandoras womb
TTITLE8=Autumn Tears - at a distance
TTITLE9=Autumn Tears - eclipse
EXTD=
EXTT0=
EXTT1=
EXTT2=
EXTT3=
EXTT4=
EXTT5=
EXTT6=
EXTT7=
EXTT8=
EXTT9=
PLAYORDER=
